<?xml version="1.0" standalone="no"?>
<!DOCTYPE svg PUBLIC "-//W3C//DTD SVG 20010904//EN"
 "http://www.w3.org/TR/2001/REC-SVG-20010904/DTD/svg10.dtd">
<svg version="1.0" xmlns="http://www.w3.org/2000/svg"
 width="500.000000pt" height="500.000000pt" viewBox="0 0 500.000000 500.000000"
 preserveAspectRatio="xMidYMid meet">

<g transform="translate(0.000000,500.000000) scale(0.100000,-0.100000)"
fill="#000000" stroke="none">
<path d="M2261 4969 c-24 -17 -57 -53 -74 -80 -22 -37 -35 -48 -46 -43 -33 15
-146 15 -185 1 -47 -16 -57 -34 -24 -41 68 -14 78 -17 78 -24 0 -5 -26 -26
-58 -49 -104 -73 -178 -192 -208 -335 -20 -92 -13 -245 15 -342 19 -69 19 -70
0 -94 -35 -45 -22 -108 47 -212 46 -71 85 -101 124 -94 21 4 29 -3 55 -46 17
-29 58 -79 93 -112 35 -33 62 -61 60 -62 -2 -2 -40 -12 -86 -24 -154 -41 -302
-122 -398 -219 l-51 -53 -189 -2 -189 -3 -3 -117 c-2 -96 -5 -118 -17 -118
-34 0 -11 -18 30 -23 60 -9 118 -34 112 -49 -3 -9 -26 -12 -82 -10 -59 2 -76
0 -73 -10 3 -7 13 -14 24 -16 64 -9 105 -26 102 -41 -2 -12 -18 -17 -66 -19
-76 -4 -80 -23 -8 -34 27 -4 50 -9 53 -12 14 -13 -14 -26 -58 -26 -45 0 -49
-2 -49 -23 0 -22 3 -23 63 -19 52 3 60 2 49 -9 -7 -8 -34 -14 -62 -14 -51 0
-62 -7 -35 -22 13 -8 16 -124 19 -968 3 -528 5 -966 5 -973 1 -10 256 -12
1259 -10 l1257 3 5 970 5 969 24 6 c44 10 32 25 -19 25 -28 0 -55 6 -62 14
-11 11 -3 12 50 9 59 -4 62 -3 62 19 0 21 -4 23 -49 23 -44 0 -72 13 -58 26 3
3 26 8 53 12 72 11 68 30 -8 34 -49 2 -63 7 -66 20 -2 13 10 19 59 30 93 21
90 39 -6 36 -56 -2 -79 1 -82 10 -6 15 52 40 112 49 51 6 61 23 15 23 l-30 0
0 120 0 120 -188 0 -188 0 -44 46 c-54 55 -185 144 -264 179 -51 23 -141 50
-230 70 l-29 6 67 65 c37 35 82 89 102 119 34 55 47 64 59 45 3 -5 19 -10 34
-10 39 0 93 57 136 144 53 104 42 168 -29 182 l-34 6 21 56 c31 87 31 291 -1
386 -30 90 -60 147 -114 221 -151 205 -420 312 -652 261 -42 -10 -81 -16 -86
-14 -6 2 -1 21 10 43 11 21 20 43 20 47 0 18 -39 6 -79 -23z m-110 -754 c-16
-36 -48 -91 -71 -122 -22 -31 -40 -60 -40 -65 0 -16 37 -7 107 26 106 51 173
118 197 199 5 15 23 1 93 -70 90 -90 206 -163 259 -163 32 0 30 12 -7 66 -40
58 -81 150 -77 170 2 10 21 -10 52 -56 67 -98 173 -205 227 -229 24 -11 47
-17 51 -13 4 4 -15 52 -42 107 -27 55 -51 116 -55 135 l-6 35 51 -55 c28 -30
70 -92 92 -138 35 -70 42 -94 46 -161 5 -94 -5 -131 -63 -226 -113 -183 -291
-285 -500 -285 -154 0 -280 52 -385 159 -181 184 -209 447 -66 621 46 56 160
152 164 139 2 -5 -10 -39 -27 -74z m1047 -267 c33 -33 -3 -143 -74 -226 -77
-91 -98 -31 -39 115 47 116 78 146 113 111z m-1403 -19 c4 -12 30 -56 59 -98
76 -113 91 -151 57 -151 -36 0 -119 112 -142 194 -15 52 11 105 26 55z m384
-546 c-10 -11 -14 -11 -20 -1 -10 17 -2 28 17 21 11 -4 12 -8 3 -20z m623 5
c-9 -9 -15 -9 -24 1 -11 11 -10 13 5 8 10 -4 17 -2 17 5 0 6 3 8 7 5 4 -4 1
-13 -5 -19z m33 12 c3 -5 1 -10 -4 -10 -6 0 -11 5 -11 10 0 6 2 10 4 10 3 0 8
-4 11 -10z m-701 -16 c14 -36 -40 -58 -85 -34 -24 13 -25 33 -1 26 9 -3 28 1
42 8 33 19 37 19 44 0z m640 -16 c21 -14 -2 -18 -27 -5 -22 12 -23 14 -9 24
12 8 18 7 21 -1 2 -6 9 -14 15 -18z m103 26 c-3 -3 -12 -4 -19 -1 -8 3 -5 6 6
6 11 1 17 -2 13 -5z m-665 -39 c3 -13 1 -22 -3 -19 -5 3 -9 12 -9 21 0 25 -11
8 -20 -29 l-8 -33 -1 31 c-2 49 33 73 41 29z m214 -12 c66 -4 113 -1 168 12
43 9 80 14 83 11 12 -12 -36 -73 -78 -96 -37 -21 -57 -25 -129 -25 -100 0
-170 28 -201 79 -30 49 -25 57 24 40 23 -9 83 -18 133 -21z m495 30 c-19 -4
-21 -7 -10 -14 8 -5 9 -9 3 -9 -6 0 -17 7 -24 15 -11 13 -8 15 21 14 27 -1 29
-3 10 -6z m-136 -43 c2 -4 -12 -7 -33 -6 -20 1 -36 4 -34 9 1 4 2 11 2 16 0
11 57 -6 65 -19z m88 -22 c-2 -5 -16 -8 -30 -8 -22 0 -25 -3 -21 -30 4 -29 3
-30 -36 -30 -36 1 -39 2 -23 14 9 7 17 19 17 25 0 17 46 61 65 61 8 0 15 6 16
13 1 6 4 1 8 -13 5 -14 6 -28 4 -32z m141 40 c-3 -5 0 -9 7 -7 28 3 40 -1 33
-13 -5 -7 -2 -9 8 -6 8 4 21 2 29 -4 11 -8 11 -9 -2 -5 -9 3 -22 0 -28 -6 -8
-8 -11 -8 -11 2 0 7 -4 9 -10 6 -6 -4 -7 1 -4 12 4 13 0 11 -17 -7 -22 -25
-22 -25 -16 -2 5 20 2 22 -16 16 -24 -8 -32 -8 -62 -5 l-20 2 20 9 c11 4 31 6
45 3 18 -3 21 -2 11 5 -10 7 -7 10 13 10 14 0 23 -5 20 -10z m-967 -14 c-3 -3
-12 -4 -19 -1 -8 3 -5 6 6 6 11 1 17 -2 13 -5z m83 -11 c-8 -3 -18 -11 -22
-17 -5 -7 -8 -4 -8 7 0 11 7 17 23 16 15 0 17 -2 7 -6z m111 -32 l43 -38 -32
-17 c-27 -14 -67 -16 -267 -16 -129 1 -235 4 -235 7 0 12 47 42 68 43 13 0 20
4 17 10 -4 6 1 7 11 3 11 -4 15 -2 11 4 -4 6 -1 13 7 16 9 4 12 0 9 -13 -3
-11 -12 -21 -22 -23 -9 -3 -1 -5 18 -6 27 -1 31 1 22 13 -9 11 -8 15 6 21 10
5 23 7 28 5 6 -1 36 -2 68 -2 31 1 57 -3 57 -8 0 -6 -9 -10 -21 -10 -11 0 -27
-7 -35 -15 -9 -8 -20 -15 -25 -15 -5 0 -9 7 -9 15 0 8 -6 15 -14 15 -8 0 -23
3 -33 7 -15 6 -16 5 -5 -9 11 -14 10 -17 -5 -22 -28 -9 -76 -9 -95 -1 -13 5
-18 3 -18 -9 0 -13 15 -15 99 -13 55 1 97 5 94 10 -3 5 4 4 15 -2 25 -13 55
-14 47 -2 -10 17 13 22 28 6 17 -16 32 -20 23 -6 -4 5 10 4 29 -2 38 -11 56
-4 35 16 -10 9 -11 9 -6 0 4 -7 2 -13 -3 -13 -16 0 -13 20 4 26 21 9 51 -16
33 -27 -18 -12 20 -11 47 1 20 8 19 9 -1 9 -24 1 -51 27 -40 38 4 4 10 3 14
-2 8 -11 48 -35 58 -35 4 0 -13 18 -37 40 -24 21 -41 39 -37 40 3 0 26 -17 49
-39z m474 9 c-3 -5 -11 -10 -16 -10 -6 0 -7 5 -4 10 3 6 11 10 16 10 6 0 7 -4
4 -10z m375 -10 c0 -5 -4 -10 -10 -10 -5 0 -10 5 -10 10 0 6 5 10 10 10 6 0
10 -4 10 -10z m46 -15 c-17 -17 -36 -20 -36 -4 0 5 4 8 9 4 5 -3 12 -1 16 5 3
5 11 10 16 10 6 0 4 -7 -5 -15z m-463 -15 c-3 -11 -9 -17 -15 -14 -5 3 -4 12
3 20 16 19 18 18 12 -6z m52 10 c3 -5 -2 -10 -11 -10 -14 0 -15 -3 -6 -12 15
-15 234 -20 243 -5 9 14 58 17 66 5 3 -7 1 -8 -5 -4 -7 4 -12 2 -12 -3 0 -6 9
-11 19 -11 20 0 35 25 25 41 -9 15 13 10 26 -6 7 -8 20 -15 29 -15 14 0 14 -2
1 -10 -8 -5 -11 -10 -6 -10 6 0 20 10 33 22 13 12 26 18 30 15 3 -4 -2 -14
-13 -23 -10 -8 -14 -13 -7 -10 6 3 22 2 35 -3 15 -7 -55 -10 -213 -10 -221 -1
-237 0 -253 18 -10 11 -15 25 -11 30 8 14 22 14 30 1z m199 1 c-9 -10 -44 -11
-44 -1 0 5 11 9 25 8 13 -1 22 -4 19 -7z m261 -23 c-9 -6 -19 -7 -22 -4 -4 3
-1 6 6 6 7 0 9 4 6 10 -4 6 1 7 11 3 15 -6 15 -7 -1 -15z m-850 -26 c-10 -2
-25 3 -33 12 -15 14 -13 15 17 3 23 -8 28 -13 16 -15z m887 6 c-17 -17 -15
-33 3 -18 8 6 19 9 25 5 15 -9 12 -32 -5 -39 -18 -7 -20 5 -2 23 9 11 7 10
-11 0 -28 -17 -23 -34 11 -34 14 -1 23 3 21 7 -9 15 23 8 36 -7 11 -13 -43
-15 -476 -14 -280 1 -474 5 -454 9 19 5 49 7 65 4 26 -4 27 -3 10 6 -16 8 -12
9 18 5 21 -4 46 -9 55 -12 15 -4 15 -3 2 6 -13 9 -13 11 2 11 9 0 18 -5 20
-10 4 -12 88 18 88 32 0 11 -3 10 -35 -6 -15 -8 -35 -12 -43 -8 -11 4 -12 7
-4 10 7 2 9 9 6 15 -5 8 -2 8 7 0 17 -17 24 -16 44 3 15 15 17 15 30 -2 13
-19 14 -18 29 1 13 16 15 17 10 3 -4 -13 -1 -18 11 -18 17 0 17 -1 2 -17 -15
-17 -2 -18 252 -18 l268 0 -3 25 c-3 23 11 50 24 50 3 0 1 -5 -6 -12z m-627
-8 c-3 -5 -11 -10 -16 -10 -6 0 -7 5 -4 10 3 6 11 10 16 10 6 0 7 -4 4 -10z
m-851 -6 c9 -3 16 -11 16 -16 0 -6 -6 -5 -15 2 -17 14 -39 4 -31 -16 3 -9 0
-11 -11 -7 -10 4 -14 2 -10 -4 4 -6 18 -10 32 -10 13 0 23 2 21 6 -6 9 492 2
544 -8 29 -6 -70 -9 -282 -10 -351 -1 -349 -1 -303 49 21 23 18 22 39 14z
m626 -14 c-11 -7 -6 -10 20 -10 26 0 31 3 20 10 -10 7 7 9 55 8 39 0 57 -3 41
-5 -20 -3 -25 -7 -17 -13 8 -4 -5 -7 -30 -7 -24 0 -72 -2 -106 -4 -34 -2 -65
0 -69 3 -13 14 6 23 53 25 33 2 43 -1 33 -7z m-630 -10 c0 -5 -4 -10 -10 -10
-5 0 -10 5 -10 10 0 6 5 10 10 10 6 0 10 -4 10 -10z m1990 -180 c0 -109 0
-111 -26 -120 -51 -20 -54 -16 -54 70 l0 80 -1165 0 -1165 0 0 -75 c0 -79 -2
-81 -47 -69 -22 6 -23 11 -23 115 l0 109 1240 0 1240 0 0 -110z m-105 -1130
l0 -1135 -1137 -3 -1138 -2 0 1022 c0 953 1 1023 17 1040 17 19 17 21 0 50
-17 30 -25 147 -10 161 3 4 515 6 1137 5 l1131 -3 0 -1135z m49 798 c0 -18 -5
-42 -9 -52 -6 -14 -2 -24 14 -38 13 -10 29 -18 37 -18 12 0 14 -148 14 -965
l0 -965 -1240 0 -1240 0 0 959 c0 528 3 962 8 964 4 2 19 7 35 11 l27 6 0
-930 0 -930 1165 0 1165 0 0 1006 c0 804 3 1004 13 996 6 -6 12 -25 11 -44z"/>
<path d="M2156 3915 c-10 -8 -16 -21 -13 -29 5 -12 11 -13 37 -3 24 9 35 9 51
-2 16 -9 24 -10 33 -1 8 9 5 16 -13 31 -27 22 -68 24 -95 4z"/>
<path d="M2661 3921 c-8 -5 -11 -16 -8 -24 5 -13 11 -14 36 -4 25 9 33 8 51
-8 15 -14 23 -16 32 -7 9 9 7 16 -7 32 -19 21 -78 27 -104 11z"/>
<path d="M2660 3812 c-50 -41 11 -113 65 -78 32 21 33 59 3 80 -29 21 -41 20
-68 -2z"/>
<path d="M2195 3796 c-25 -38 -3 -76 46 -76 32 0 49 17 49 52 0 49 -68 66 -95
24z"/>
<path d="M2422 3684 c5 -26 35 -41 55 -28 29 18 29 38 0 30 -14 -3 -29 -2 -32
4 -10 16 -27 11 -23 -6z"/>
<path d="M2532 3580 c-19 -25 -29 -30 -67 -30 -35 0 -48 5 -63 25 -11 14 -25
25 -31 25 -20 0 -11 -36 15 -61 37 -35 123 -35 158 1 27 27 37 61 21 67 -6 2
-21 -10 -33 -27z"/>
<path d="M2070 3360 c-12 -8 -11 -10 7 -10 12 0 25 5 28 10 8 13 -15 13 -35 0z"/>
<path d="M3055 3240 c3 -5 10 -10 16 -10 5 0 9 5 9 10 0 6 -7 10 -16 10 -8 0
-12 -4 -9 -10z"/>
<path d="M2610 3175 l-25 -14 28 3 c15 1 28 6 28 10 1 14 -6 14 -31 1z"/>
<path d="M1582 1885 c-93 -29 -144 -92 -144 -177 1 -89 51 -137 177 -173 107
-31 136 -55 115 -95 -28 -52 -133 -45 -199 15 l-37 34 -37 -49 -37 -49 25 -30
c36 -42 102 -71 176 -77 149 -13 269 72 269 190 0 88 -51 135 -188 176 -40 12
-82 30 -92 40 -22 22 -16 56 13 71 32 18 129 6 164 -19 17 -12 33 -22 36 -22
3 0 20 23 38 51 l33 52 -30 24 c-61 49 -190 67 -282 38z"/>
<path d="M2100 1731 c-109 -23 -170 -101 -170 -219 0 -148 73 -226 212 -227
58 0 72 4 110 30 23 17 44 37 45 45 1 8 -13 33 -32 54 l-35 39 -23 -21 c-35
-33 -99 -30 -126 4 -40 51 -21 147 34 172 38 18 69 15 99 -9 15 -12 28 -20 29
-18 1 2 17 23 34 45 30 39 31 43 15 57 -47 41 -128 61 -192 48z"/>
<path d="M2431 1729 c-37 -7 -111 -50 -111 -65 0 -4 13 -26 56 -93 2 -1 13 6
25 18 48 45 136 35 164 -18 l14 -27 -57 4 c-132 8 -225 -100 -182 -212 13 -36
68 -60 115 -52 32 6 42 16 78 74 l42 67 5 -50 c11 -101 31 -111 123 -60 45 26
46 26 26 46 -16 16 -19 33 -19 119 0 109 -12 152 -51 190 -52 49 -148 74 -228
59z m149 -237 c0 -21 -7 -47 -15 -59 -31 -45 -105 -36 -105 13 0 36 51 84 89
84 29 0 31 -2 31 -38z"/>
<path d="M3395 1735 c-5 -2 -27 -6 -48 -10 -84 -14 -149 -106 -149 -215 -1
-136 84 -230 207 -230 61 0 165 52 165 83 0 7 -16 29 -36 50 l-35 38 -26 -21
c-16 -12 -41 -20 -64 -20 -52 0 -79 35 -79 102 0 42 5 54 30 79 33 33 66 36
84 6 17 -26 -11 -68 -64 -94 l-44 -23 67 0 c75 0 114 15 146 56 41 52 16 145
-46 178 -31 15 -91 28 -108 21z"/>
<path d="M2765 1420 l0 -310 77 0 77 0 -10 32 c-10 37 -13 275 -2 265 3 -4 16
-31 27 -59 19 -47 26 -54 59 -62 57 -14 99 10 131 76 50 104 44 230 -15 301
-41 50 -103 67 -238 67 l-106 0 0 -310z m239 161 c24 -25 33 -115 14 -151 -19
-35 -61 -38 -93 -6 -22 22 -25 33 -25 99 0 40 3 77 8 81 12 13 75 -2 96 -23z"/>
</g>
</svg>
